<svg xmlns="http://www.w3.org/2000/svg" xmlns:xlink="http://www.w3.org/1999/xlink" width="500" zoomAndPan="magnify" viewBox="0 0 375 187.499995" height="250" preserveAspectRatio="xMidYMid meet" version="1.0"><defs><g/></defs><g fill="#ffffff" fill-opacity="1"><g transform="translate(-3.537324, 149.274353)"><g><path d="M 10.171875 0 L 10.171875 -21.890625 L 56.9375 -21.890625 C 59.019531 -21.890625 60.894531 -22.410156 62.5625 -23.453125 C 64.226562 -24.503906 65.554688 -25.863281 66.546875 -27.53125 C 67.535156 -29.195312 68.03125 -31.019531 68.03125 -33 C 68.03125 -35.082031 67.535156 -36.957031 66.546875 -38.625 C 65.554688 -40.300781 64.226562 -41.660156 62.5625 -42.703125 C 60.894531 -43.742188 59.019531 -44.265625 56.9375 -44.265625 L 40.046875 -44.265625 C 33.679688 -44.265625 27.890625 -45.515625 22.671875 -48.015625 C 17.460938 -50.515625 13.316406 -54.1875 10.234375 -59.03125 C 7.160156 -63.882812 5.625 -69.703125 5.625 -76.484375 C 5.625 -83.160156 7.082031 -88.945312 10 -93.84375 C 12.925781 -98.738281 16.890625 -102.566406 21.890625 -105.328125 C 26.898438 -108.097656 32.425781 -109.484375 38.46875 -109.484375 L 86.8125 -109.484375 L 86.8125 -87.59375 L 41.453125 -87.59375 C 39.566406 -87.59375 37.84375 -87.117188 36.28125 -86.171875 C 34.71875 -85.234375 33.519531 -83.984375 32.6875 -82.421875 C 31.851562 -80.859375 31.4375 -79.140625 31.4375 -77.265625 C 31.4375 -75.390625 31.851562 -73.691406 32.6875 -72.171875 C 33.519531 -70.660156 34.71875 -69.4375 36.28125 -68.5 C 37.84375 -67.5625 39.566406 -67.09375 41.453125 -67.09375 L 59.125 -67.09375 C 66.101562 -67.09375 72.171875 -65.765625 77.328125 -63.109375 C 82.492188 -60.453125 86.507812 -56.75 89.375 -52 C 92.25 -47.257812 93.6875 -41.707031 93.6875 -35.34375 C 93.6875 -27.84375 92.195312 -21.457031 89.21875 -16.1875 C 86.25 -10.925781 82.257812 -6.910156 77.25 -4.140625 C 72.25 -1.378906 66.726562 0 60.6875 0 Z M 10.171875 0 "/></g></g></g><g fill="#ffffff" fill-opacity="1"><g transform="translate(82.320888, 149.274353)"><g><path d="M 41.296875 1.875 C 34.203125 1.875 27.941406 0.0507812 22.515625 -3.59375 C 17.097656 -7.25 12.875 -12.175781 9.84375 -18.375 C 6.820312 -24.582031 5.3125 -31.597656 5.3125 -39.421875 C 5.3125 -47.546875 7.082031 -54.816406 10.625 -61.234375 C 14.175781 -67.648438 19.207031 -72.734375 25.71875 -76.484375 C 32.238281 -80.234375 39.929688 -82.109375 48.796875 -82.109375 C 57.765625 -82.109375 65.398438 -80.257812 71.703125 -76.5625 C 78.015625 -72.863281 82.863281 -67.804688 86.25 -61.390625 C 89.644531 -54.972656 91.34375 -47.804688 91.34375 -39.890625 L 91.34375 0 L 67.5625 0 L 67.5625 -12.828125 L 66.9375 -12.828125 C 65.476562 -10.015625 63.601562 -7.484375 61.3125 -5.234375 C 59.019531 -2.992188 56.226562 -1.25 52.9375 0 C 49.65625 1.25 45.773438 1.875 41.296875 1.875 Z M 48.484375 -19.078125 C 52.128906 -19.078125 55.332031 -19.988281 58.09375 -21.8125 C 60.863281 -23.644531 62.976562 -26.175781 64.4375 -29.40625 C 65.894531 -32.632812 66.625 -36.234375 66.625 -40.203125 C 66.625 -44.054688 65.894531 -47.546875 64.4375 -50.671875 C 62.976562 -53.804688 60.863281 -56.285156 58.09375 -58.109375 C 55.332031 -59.929688 52.128906 -60.84375 48.484375 -60.84375 C 44.734375 -60.84375 41.445312 -59.929688 38.625 -58.109375 C 35.8125 -56.285156 33.675781 -53.804688 32.21875 -50.671875 C 30.757812 -47.546875 30.03125 -44.054688 30.03125 -40.203125 C 30.03125 -36.234375 30.757812 -32.632812 32.21875 -29.40625 C 33.675781 -26.175781 35.8125 -23.644531 38.625 -21.8125 C 41.445312 -19.988281 44.734375 -19.078125 48.484375 -19.078125 Z M 48.484375 -19.078125 "/></g></g></g><g fill="#ffffff" fill-opacity="1"><g transform="translate(169.74301, 149.274353)"><g><path d="M 8.453125 0 L 8.453125 -56.625 C 8.453125 -63.914062 10.535156 -69.644531 14.703125 -73.8125 C 18.867188 -77.988281 24.65625 -80.078125 32.0625 -80.078125 L 55.375 -80.078125 L 55.375 -60.375 L 38 -60.375 C 36.539062 -60.375 35.289062 -59.878906 34.25 -58.890625 C 33.207031 -57.898438 32.6875 -56.625 32.6875 -55.0625 L 32.6875 0 Z M 8.453125 0 "/></g></g></g><g fill="#ffffff" fill-opacity="1"><g transform="translate(214.001088, 149.274353)"><g><path d="M 41.296875 1.875 C 34.203125 1.875 27.941406 0.0507812 22.515625 -3.59375 C 17.097656 -7.25 12.875 -12.175781 9.84375 -18.375 C 6.820312 -24.582031 5.3125 -31.597656 5.3125 -39.421875 C 5.3125 -47.546875 7.082031 -54.816406 10.625 -61.234375 C 14.175781 -67.648438 19.207031 -72.734375 25.71875 -76.484375 C 32.238281 -80.234375 39.929688 -82.109375 48.796875 -82.109375 C 57.765625 -82.109375 65.398438 -80.257812 71.703125 -76.5625 C 78.015625 -72.863281 82.863281 -67.804688 86.25 -61.390625 C 89.644531 -54.972656 91.34375 -47.804688 91.34375 -39.890625 L 91.34375 0 L 67.5625 0 L 67.5625 -12.828125 L 66.9375 -12.828125 C 65.476562 -10.015625 63.601562 -7.484375 61.3125 -5.234375 C 59.019531 -2.992188 56.226562 -1.25 52.9375 0 C 49.65625 1.25 45.773438 1.875 41.296875 1.875 Z M 48.484375 -19.078125 C 52.128906 -19.078125 55.332031 -19.988281 58.09375 -21.8125 C 60.863281 -23.644531 62.976562 -26.175781 64.4375 -29.40625 C 65.894531 -32.632812 66.625 -36.234375 66.625 -40.203125 C 66.625 -44.054688 65.894531 -47.546875 64.4375 -50.671875 C 62.976562 -53.804688 60.863281 -56.285156 58.09375 -58.109375 C 55.332031 -59.929688 52.128906 -60.84375 48.484375 -60.84375 C 44.734375 -60.84375 41.445312 -59.929688 38.625 -58.109375 C 35.8125 -56.285156 33.675781 -53.804688 32.21875 -50.671875 C 30.757812 -47.546875 30.03125 -44.054688 30.03125 -40.203125 C 30.03125 -36.234375 30.757812 -32.632812 32.21875 -29.40625 C 33.675781 -26.175781 35.8125 -23.644531 38.625 -21.8125 C 41.445312 -19.988281 44.734375 -19.078125 48.484375 -19.078125 Z M 48.484375 -19.078125 "/></g></g></g><g fill="#ffffff" fill-opacity="1"><g transform="translate(301.423199, 149.274353)"><g><path d="M 6.71875 0 L 6.71875 -22.359375 L 27.0625 -22.359375 L 27.0625 -87.125 L 8.296875 -87.125 L 8.296875 -109.484375 L 52.703125 -109.484375 L 52.703125 -22.359375 L 71.015625 -22.359375 L 71.015625 0 Z M 6.71875 0 "/></g></g></g></svg>