<svg xmlns="http://www.w3.org/2000/svg" xmlns:xlink="http://www.w3.org/1999/xlink" width="500" zoomAndPan="magnify" viewBox="0 0 375 187.499995" height="250" preserveAspectRatio="xMidYMid meet" version="1.0"><defs><g/><clipPath id="a48fb74f1d"><path d="M 0.5 0 L 374 0 L 374 187 L 0.5 187 Z M 0.5 0 " clip-rule="nonzero"/></clipPath><clipPath id="6d1ca284db"><rect x="0" width="374" y="0" height="187"/></clipPath></defs><g clip-path="url(#a48fb74f1d)"><g transform="matrix(1, 0, 0, 1, 0, 0)"><g clip-path="url(#6d1ca284db)"><g fill="#222222" fill-opacity="1"><g transform="translate(-3.537324, 148.177382)"><g><path d="M 10.171875 0 L 10.171875 -21.890625 L 56.921875 -21.890625 C 59.003906 -21.890625 60.878906 -22.410156 62.546875 -23.453125 C 64.222656 -24.492188 65.554688 -25.847656 66.546875 -27.515625 C 67.535156 -29.191406 68.03125 -31.019531 68.03125 -33 C 68.03125 -35.082031 67.535156 -36.957031 66.546875 -38.625 C 65.554688 -40.289062 64.222656 -41.644531 62.546875 -42.6875 C 60.878906 -43.738281 59.003906 -44.265625 56.921875 -44.265625 L 40.03125 -44.265625 C 33.675781 -44.265625 27.890625 -45.515625 22.671875 -48.015625 C 17.460938 -50.515625 13.316406 -54.1875 10.234375 -59.03125 C 7.160156 -63.882812 5.625 -69.695312 5.625 -76.46875 C 5.625 -83.144531 7.082031 -88.929688 10 -93.828125 C 12.925781 -98.734375 16.890625 -102.566406 21.890625 -105.328125 C 26.898438 -108.085938 32.425781 -109.46875 38.46875 -109.46875 L 86.796875 -109.46875 L 86.796875 -87.578125 L 41.4375 -87.578125 C 39.5625 -87.578125 37.84375 -87.109375 36.28125 -86.171875 C 34.71875 -85.234375 33.519531 -83.984375 32.6875 -82.421875 C 31.851562 -80.859375 31.4375 -79.132812 31.4375 -77.25 C 31.4375 -75.375 31.851562 -73.679688 32.6875 -72.171875 C 33.519531 -70.660156 34.71875 -69.4375 36.28125 -68.5 C 37.84375 -67.5625 39.5625 -67.09375 41.4375 -67.09375 L 59.109375 -67.09375 C 66.097656 -67.09375 72.171875 -65.757812 77.328125 -63.09375 C 82.492188 -60.4375 86.507812 -56.738281 89.375 -52 C 92.238281 -47.257812 93.671875 -41.707031 93.671875 -35.34375 C 93.671875 -27.832031 92.1875 -21.441406 89.21875 -16.171875 C 86.25 -10.910156 82.257812 -6.898438 77.25 -4.140625 C 72.25 -1.378906 66.722656 0 60.671875 0 Z M 10.171875 0 "/></g></g></g><g fill="#222222" fill-opacity="1"><g transform="translate(82.308292, 148.177382)"><g><path d="M 41.28125 1.875 C 34.195312 1.875 27.941406 0.0507812 22.515625 -3.59375 C 17.097656 -7.25 12.875 -12.175781 9.84375 -18.375 C 6.820312 -24.582031 5.3125 -31.59375 5.3125 -39.40625 C 5.3125 -47.539062 7.082031 -54.8125 10.625 -61.21875 C 14.175781 -67.632812 19.207031 -72.71875 25.71875 -76.46875 C 32.238281 -80.226562 39.929688 -82.109375 48.796875 -82.109375 C 57.765625 -82.109375 65.398438 -80.253906 71.703125 -76.546875 C 78.015625 -72.847656 82.863281 -67.789062 86.25 -61.375 C 89.632812 -54.96875 91.328125 -47.800781 91.328125 -39.875 L 91.328125 0 L 67.5625 0 L 67.5625 -12.828125 L 66.9375 -12.828125 C 65.476562 -10.003906 63.597656 -7.472656 61.296875 -5.234375 C 59.003906 -2.992188 56.21875 -1.25 52.9375 0 C 49.65625 1.25 45.769531 1.875 41.28125 1.875 Z M 48.484375 -19.078125 C 52.128906 -19.078125 55.332031 -19.988281 58.09375 -21.8125 C 60.863281 -23.632812 62.976562 -26.160156 64.4375 -29.390625 C 65.894531 -32.628906 66.625 -36.226562 66.625 -40.1875 C 66.625 -44.050781 65.894531 -47.546875 64.4375 -50.671875 C 62.976562 -53.796875 60.863281 -56.269531 58.09375 -58.09375 C 55.332031 -59.925781 52.128906 -60.84375 48.484375 -60.84375 C 44.722656 -60.84375 41.4375 -59.925781 38.625 -58.09375 C 35.8125 -56.269531 33.675781 -53.796875 32.21875 -50.671875 C 30.757812 -47.546875 30.03125 -44.050781 30.03125 -40.1875 C 30.03125 -36.226562 30.757812 -32.628906 32.21875 -29.390625 C 33.675781 -26.160156 35.8125 -23.632812 38.625 -21.8125 C 41.4375 -19.988281 44.722656 -19.078125 48.484375 -19.078125 Z M 48.484375 -19.078125 "/></g></g></g><g fill="#222222" fill-opacity="1"><g transform="translate(169.717628, 148.177382)"><g><path d="M 8.4375 0 L 8.4375 -56.609375 C 8.4375 -63.910156 10.519531 -69.644531 14.6875 -73.8125 C 18.863281 -77.988281 24.65625 -80.078125 32.0625 -80.078125 L 55.359375 -80.078125 L 55.359375 -60.359375 L 38 -60.359375 C 36.539062 -60.359375 35.289062 -59.863281 34.25 -58.875 C 33.207031 -57.882812 32.6875 -56.609375 32.6875 -55.046875 L 32.6875 0 Z M 8.4375 0 "/></g></g></g><g fill="#222222" fill-opacity="1"><g transform="translate(213.968412, 148.177382)"><g><path d="M 41.28125 1.875 C 34.195312 1.875 27.941406 0.0507812 22.515625 -3.59375 C 17.097656 -7.25 12.875 -12.175781 9.84375 -18.375 C 6.820312 -24.582031 5.3125 -31.59375 5.3125 -39.40625 C 5.3125 -47.539062 7.082031 -54.8125 10.625 -61.21875 C 14.175781 -67.632812 19.207031 -72.71875 25.71875 -76.46875 C 32.238281 -80.226562 39.929688 -82.109375 48.796875 -82.109375 C 57.765625 -82.109375 65.398438 -80.253906 71.703125 -76.546875 C 78.015625 -72.847656 82.863281 -67.789062 86.25 -61.375 C 89.632812 -54.96875 91.328125 -47.800781 91.328125 -39.875 L 91.328125 0 L 67.5625 0 L 67.5625 -12.828125 L 66.9375 -12.828125 C 65.476562 -10.003906 63.597656 -7.472656 61.296875 -5.234375 C 59.003906 -2.992188 56.21875 -1.25 52.9375 0 C 49.65625 1.25 45.769531 1.875 41.28125 1.875 Z M 48.484375 -19.078125 C 52.128906 -19.078125 55.332031 -19.988281 58.09375 -21.8125 C 60.863281 -23.632812 62.976562 -26.160156 64.4375 -29.390625 C 65.894531 -32.628906 66.625 -36.226562 66.625 -40.1875 C 66.625 -44.050781 65.894531 -47.546875 64.4375 -50.671875 C 62.976562 -53.796875 60.863281 -56.269531 58.09375 -58.09375 C 55.332031 -59.925781 52.128906 -60.84375 48.484375 -60.84375 C 44.722656 -60.84375 41.4375 -59.925781 38.625 -58.09375 C 35.8125 -56.269531 33.675781 -53.796875 32.21875 -50.671875 C 30.757812 -47.546875 30.03125 -44.050781 30.03125 -40.1875 C 30.03125 -36.226562 30.757812 -32.628906 32.21875 -29.390625 C 33.675781 -26.160156 35.8125 -23.632812 38.625 -21.8125 C 41.4375 -19.988281 44.722656 -19.078125 48.484375 -19.078125 Z M 48.484375 -19.078125 "/></g></g></g><g fill="#222222" fill-opacity="1"><g transform="translate(301.377749, 148.177382)"><g><path d="M 6.71875 0 L 6.71875 -22.359375 L 27.0625 -22.359375 L 27.0625 -87.109375 L 8.28125 -87.109375 L 8.28125 -109.46875 L 52.703125 -109.46875 L 52.703125 -22.359375 L 71 -22.359375 L 71 0 Z M 6.71875 0 "/></g></g></g></g></g></g></svg>